<mxfile host="app.diagrams.net" modified="2022-10-29T00:44:04.941Z" agent="5.0 (Windows NT 10.0; Win64; x64) AppleWebKit/537.36 (KHTML, like Gecko) Chrome/107.0.0.0 Safari/537.36" etag="wpYsi5LaGKnSRKcwzigZ" version="20.5.1" type="github">
  <diagram id="kgpKYQtTHZ0yAKxKKP6v" name="Page-1">
    <mxGraphModel dx="868" dy="482" grid="1" gridSize="10" guides="1" tooltips="1" connect="1" arrows="1" fold="1" page="1" pageScale="1" pageWidth="850" pageHeight="1100" math="0" shadow="0">
      <root>
        <mxCell id="0" />
        <mxCell id="1" parent="0" />
        <mxCell id="M0CQ6oxBDmV-9MIL71eg-13" value="" style="rounded=0;whiteSpace=wrap;html=1;" parent="1" vertex="1">
          <mxGeometry x="60" y="150" width="750" height="790" as="geometry" />
        </mxCell>
        <mxCell id="3nuBFxr9cyL0pnOWT2aG-1" value=":CÃ¡mara" style="shape=umlLifeline;perimeter=lifelinePerimeter;container=1;collapsible=0;recursiveResize=0;rounded=0;shadow=0;strokeWidth=1;" parent="1" vertex="1">
          <mxGeometry x="40" y="80" width="90" height="820" as="geometry" />
        </mxCell>
        <mxCell id="3nuBFxr9cyL0pnOWT2aG-2" value="" style="points=[];perimeter=orthogonalPerimeter;rounded=0;shadow=0;strokeWidth=1;" parent="3nuBFxr9cyL0pnOWT2aG-1" vertex="1">
          <mxGeometry x="45" y="70" width="10" height="220" as="geometry" />
        </mxCell>
        <mxCell id="3nuBFxr9cyL0pnOWT2aG-3" value="dispatch" style="verticalAlign=bottom;startArrow=oval;endArrow=block;startSize=8;shadow=0;strokeWidth=1;" parent="3nuBFxr9cyL0pnOWT2aG-1" target="3nuBFxr9cyL0pnOWT2aG-2" edge="1">
          <mxGeometry relative="1" as="geometry">
            <mxPoint x="-15" y="70" as="sourcePoint" />
          </mxGeometry>
        </mxCell>
        <mxCell id="3nuBFxr9cyL0pnOWT2aG-5" value=":Sistema" style="shape=umlLifeline;perimeter=lifelinePerimeter;container=1;collapsible=0;recursiveResize=0;rounded=0;shadow=0;strokeWidth=1;" parent="1" vertex="1">
          <mxGeometry x="220" y="80" width="100" height="650" as="geometry" />
        </mxCell>
        <mxCell id="3nuBFxr9cyL0pnOWT2aG-6" value="" style="points=[];perimeter=orthogonalPerimeter;rounded=0;shadow=0;strokeWidth=1;" parent="3nuBFxr9cyL0pnOWT2aG-5" vertex="1">
          <mxGeometry x="45" y="131" width="10" height="379" as="geometry" />
        </mxCell>
        <mxCell id="3nuBFxr9cyL0pnOWT2aG-8" value="Enviar (Hs,Fecha,I.d,patente,&#xa;Velocidad)" style="verticalAlign=bottom;endArrow=block;entryX=0;entryY=0;shadow=0;strokeWidth=1;" parent="1" edge="1">
          <mxGeometry relative="1" as="geometry">
            <mxPoint x="95" y="211" as="sourcePoint" />
            <mxPoint x="265" y="211.0000000000001" as="targetPoint" />
            <Array as="points">
              <mxPoint x="175" y="211" />
            </Array>
          </mxGeometry>
        </mxCell>
        <mxCell id="M0CQ6oxBDmV-9MIL71eg-2" value=":Api" style="shape=umlLifeline;perimeter=lifelinePerimeter;container=1;collapsible=0;recursiveResize=0;rounded=0;shadow=0;strokeWidth=1;" parent="1" vertex="1">
          <mxGeometry x="400" y="80" width="100" height="670" as="geometry" />
        </mxCell>
        <mxCell id="M0CQ6oxBDmV-9MIL71eg-3" value="" style="points=[];perimeter=orthogonalPerimeter;rounded=0;shadow=0;strokeWidth=1;" parent="M0CQ6oxBDmV-9MIL71eg-2" vertex="1">
          <mxGeometry x="45" y="150" width="10" height="50" as="geometry" />
        </mxCell>
        <mxCell id="SZ8pcLvOxQJ-LKVlNp_l-4" value="" style="points=[];perimeter=orthogonalPerimeter;rounded=0;shadow=0;strokeWidth=1;" vertex="1" parent="M0CQ6oxBDmV-9MIL71eg-2">
          <mxGeometry x="45" y="350" width="10" height="50" as="geometry" />
        </mxCell>
        <mxCell id="M0CQ6oxBDmV-9MIL71eg-4" value=":Servidor&#xa;Correo&#xa;" style="shape=umlLifeline;perimeter=lifelinePerimeter;container=1;collapsible=0;recursiveResize=0;rounded=0;shadow=0;strokeWidth=1;" parent="1" vertex="1">
          <mxGeometry x="561" y="80" width="100" height="610" as="geometry" />
        </mxCell>
        <mxCell id="M0CQ6oxBDmV-9MIL71eg-5" value="" style="points=[];perimeter=orthogonalPerimeter;rounded=0;shadow=0;strokeWidth=1;" parent="M0CQ6oxBDmV-9MIL71eg-4" vertex="1">
          <mxGeometry x="45" y="239" width="10" height="51" as="geometry" />
        </mxCell>
        <mxCell id="M0CQ6oxBDmV-9MIL71eg-9" value="Enviar (Hs,Fecha,I.d,patente,&#xa;Velocidad)" style="verticalAlign=bottom;endArrow=block;shadow=0;strokeWidth=1;" parent="M0CQ6oxBDmV-9MIL71eg-4" edge="1">
          <mxGeometry relative="1" as="geometry">
            <mxPoint x="-285" y="240" as="sourcePoint" />
            <mxPoint x="45" y="240" as="targetPoint" />
            <Array as="points" />
          </mxGeometry>
        </mxCell>
        <mxCell id="M0CQ6oxBDmV-9MIL71eg-6" value=":Impresora" style="shape=umlLifeline;perimeter=lifelinePerimeter;container=1;collapsible=0;recursiveResize=0;rounded=0;shadow=0;strokeWidth=1;" parent="1" vertex="1">
          <mxGeometry x="701" y="80" width="100" height="300" as="geometry" />
        </mxCell>
        <mxCell id="M0CQ6oxBDmV-9MIL71eg-7" value="" style="points=[];perimeter=orthogonalPerimeter;rounded=0;shadow=0;strokeWidth=1;" parent="M0CQ6oxBDmV-9MIL71eg-6" vertex="1">
          <mxGeometry x="45" y="80" width="10" height="160" as="geometry" />
        </mxCell>
        <mxCell id="M0CQ6oxBDmV-9MIL71eg-8" value="Enviar (Hs,Fecha,I.d,patente,&#xa;Velocidad)" style="verticalAlign=bottom;endArrow=block;entryX=0;entryY=0;shadow=0;strokeWidth=1;" parent="1" edge="1">
          <mxGeometry relative="1" as="geometry">
            <mxPoint x="276" y="230" as="sourcePoint" />
            <mxPoint x="446" y="230.0000000000001" as="targetPoint" />
            <Array as="points">
              <mxPoint x="356" y="230" />
            </Array>
          </mxGeometry>
        </mxCell>
        <mxCell id="M0CQ6oxBDmV-9MIL71eg-10" value="&lt;&lt;null&gt;&gt;" style="verticalAlign=bottom;endArrow=open;dashed=1;endSize=8;shadow=0;strokeWidth=1;" parent="1" edge="1">
          <mxGeometry relative="1" as="geometry">
            <mxPoint x="274" y="280" as="targetPoint" />
            <mxPoint x="443.5" y="280" as="sourcePoint" />
          </mxGeometry>
        </mxCell>
        <mxCell id="M0CQ6oxBDmV-9MIL71eg-11" value="" style="verticalAlign=bottom;endArrow=open;dashed=1;endSize=8;shadow=0;strokeWidth=1;exitX=0.1;exitY=0.784;exitDx=0;exitDy=0;exitPerimeter=0;" parent="1" edge="1">
          <mxGeometry x="0.0691" y="-20" relative="1" as="geometry">
            <mxPoint x="274" y="371" as="targetPoint" />
            <mxPoint x="605" y="369.98400000000004" as="sourcePoint" />
            <mxPoint as="offset" />
          </mxGeometry>
        </mxCell>
        <mxCell id="SZ8pcLvOxQJ-LKVlNp_l-2" value="&amp;lt;&amp;lt;null&amp;gt;&amp;gt;" style="text;html=1;strokeColor=none;fillColor=none;align=center;verticalAlign=middle;whiteSpace=wrap;rounded=0;" vertex="1" parent="1">
          <mxGeometry x="340" y="347.5" width="60" height="30" as="geometry" />
        </mxCell>
        <mxCell id="SZ8pcLvOxQJ-LKVlNp_l-5" value="Enviar (Hs,Fecha,I.d,patente,&#xa;Velocidad)" style="verticalAlign=bottom;endArrow=block;entryX=0;entryY=0;shadow=0;strokeWidth=1;" edge="1" parent="1">
          <mxGeometry relative="1" as="geometry">
            <mxPoint x="276" y="430" as="sourcePoint" />
            <mxPoint x="446" y="430.0000000000001" as="targetPoint" />
            <Array as="points">
              <mxPoint x="356" y="430" />
            </Array>
          </mxGeometry>
        </mxCell>
        <mxCell id="SZ8pcLvOxQJ-LKVlNp_l-6" value="" style="points=[];perimeter=orthogonalPerimeter;rounded=0;shadow=0;strokeWidth=1;" vertex="1" parent="1">
          <mxGeometry x="607" y="528" width="10" height="51" as="geometry" />
        </mxCell>
        <mxCell id="SZ8pcLvOxQJ-LKVlNp_l-7" value="Enviar (Hs,Fecha,I.d,patente,&#xa;Velocidad)" style="verticalAlign=bottom;endArrow=block;shadow=0;strokeWidth=1;" edge="1" parent="1">
          <mxGeometry relative="1" as="geometry">
            <mxPoint x="277" y="529" as="sourcePoint" />
            <mxPoint x="607" y="529" as="targetPoint" />
            <Array as="points" />
          </mxGeometry>
        </mxCell>
        <mxCell id="SZ8pcLvOxQJ-LKVlNp_l-8" value="" style="verticalAlign=bottom;endArrow=open;dashed=1;endSize=8;shadow=0;strokeWidth=1;exitX=0.1;exitY=0.784;exitDx=0;exitDy=0;exitPerimeter=0;" edge="1" parent="1">
          <mxGeometry x="0.0691" y="-20" relative="1" as="geometry">
            <mxPoint x="275" y="579" as="targetPoint" />
            <mxPoint x="606" y="577.9839999999999" as="sourcePoint" />
            <mxPoint as="offset" />
          </mxGeometry>
        </mxCell>
        <mxCell id="SZ8pcLvOxQJ-LKVlNp_l-9" value="&lt;&lt;null&gt;&gt;" style="verticalAlign=bottom;endArrow=open;dashed=1;endSize=8;shadow=0;strokeWidth=1;" edge="1" parent="1">
          <mxGeometry relative="1" as="geometry">
            <mxPoint x="274" y="480" as="targetPoint" />
            <mxPoint x="443.5" y="480" as="sourcePoint" />
          </mxGeometry>
        </mxCell>
      </root>
    </mxGraphModel>
  </diagram>
</mxfile>
